HIERARCHY
ROOT Hips
{
	OFFSET 0.000000 0.000000 0.000000
	CHANNELS 6 Xposition Yposition Zposition Xrotation Yrotation Zrotation
	JOINT LeftUpLeg_virtual
	{
		OFFSET 0.000000 0.000000 0.000000
		CHANNELS 3 Xrotation Yrotation Zrotation
		JOINT LeftUpLeg
		{
			OFFSET 15.427100 -6.655098 0.678600
			CHANNELS 3 Xrotation Yrotation Zrotation
			JOINT LeftLeg
			{
				OFFSET 4.081073 -39.591068 13.024000
				CHANNELS 3 Xrotation Yrotation Zrotation
				JOINT LeftFoot
				{
					OFFSET -4.081074 -37.707932 -15.979700
					CHANNELS 3 Xrotation Yrotation Zrotation
					JOINT LeftToeBase
					{
						OFFSET 5.346399 -15.068900 20.645000
						CHANNELS 3 Xrotation Yrotation Zrotation
						JOINT LeftToe_End
						{
							OFFSET 2.754700 0.931300 11.300900
							CHANNELS 3 Xrotation Yrotation Zrotation
							End Site
							{
								OFFSET 0 0 0
							}
						}
					}
				}
			}
		}
	}
	JOINT RightUpLeg_virtual
	{
		OFFSET 0.000000 0.000000 0.000000
		CHANNELS 3 Xrotation Yrotation Zrotation
		JOINT RightUpLeg
		{
			OFFSET -15.569500 -6.655098 0.678600
			CHANNELS 3 Xrotation Yrotation Zrotation
			JOINT RightLeg
			{
				OFFSET -4.081825 -39.591045 13.023800
				CHANNELS 3 Xrotation Yrotation Zrotation
				JOINT RightFoot
				{
					OFFSET 4.081824 -37.707954 -15.979600
					CHANNELS 3 Xrotation Yrotation Zrotation
					JOINT RightToeBase
					{
						OFFSET -5.346400 -15.068900 20.645000
						CHANNELS 3 Xrotation Yrotation Zrotation
						JOINT RightToe_End
						{
							OFFSET -2.754700 0.931300 11.300900
							CHANNELS 3 Xrotation Yrotation Zrotation
							End Site
							{
								OFFSET 0 0 0
							}
						}
					}
				}
			}
		}
	}
	JOINT Spine_virtual
	{
		OFFSET 0.000000 0.000000 0.000000
		CHANNELS 3 Xrotation Yrotation Zrotation
		JOINT Spine
		{
			OFFSET -0.279200 12.230698 -2.892100
			CHANNELS 3 Xrotation Yrotation Zrotation
			JOINT Spine1
			{
				OFFSET -0.232667 10.192268 -1.242267
				CHANNELS 3 Xrotation Yrotation Zrotation
				JOINT Spine1_split
				{
					OFFSET -0.232667 10.192268 -1.242267
					CHANNELS 3 Xrotation Yrotation Zrotation
					JOINT Spine2
					{
						OFFSET -0.232667 10.192268 -1.242267
						CHANNELS 3 Xrotation Yrotation Zrotation
						JOINT Neck_virtual
						{
							OFFSET 0.000000 0.000000 0.000000
							CHANNELS 3 Xrotation Yrotation Zrotation
							JOINT Neck
							{
								OFFSET -0.418800 17.814194 8.416900
								CHANNELS 3 Xrotation Yrotation Zrotation
								JOINT Head
								{
									OFFSET 0.000000 7.031097 3.806800
									CHANNELS 3 Xrotation Yrotation Zrotation
									JOINT HeadTop_End
									{
										OFFSET 0.000000 24.646606 12.978600
										CHANNELS 3 Xrotation Yrotation Zrotation
										End Site
										{
											OFFSET 0 0 0
										}
									}
								}
							}
						}
						JOINT LeftShoulder_virtual
						{
							OFFSET 0.000000 0.000000 0.000000
							CHANNELS 3 Xrotation Yrotation Zrotation
							JOINT LeftShoulder
							{
								OFFSET 8.476499 7.247704 -3.868750
								CHANNELS 3 Xrotation Yrotation Zrotation
								JOINT LeftShoulder_split
								{
									OFFSET 8.476499 7.247704 -3.868750
									CHANNELS 3 Xrotation Yrotation Zrotation
									JOINT LeftArm
									{
										OFFSET 9.308998 -2.777710 0.208600
										CHANNELS 3 Xrotation Yrotation Zrotation
										JOINT LeftForeArm
										{
											OFFSET 29.972298 0.000000 0.000000
											CHANNELS 3 Xrotation Yrotation Zrotation
											JOINT LeftHand
											{
												OFFSET 26.026505 0.000000 0.000000
												CHANNELS 3 Xrotation Yrotation Zrotation
												End Site
												{
													OFFSET 0 0 0
												}
											}
										}
									}
								}
							}
						}
						JOINT RightShoulder_virtual
						{
							OFFSET 0.000000 0.000000 0.000000
							CHANNELS 3 Xrotation Yrotation Zrotation
							JOINT RightShoulder
							{
								OFFSET -7.570500 7.247704 -3.868750
								CHANNELS 3 Xrotation Yrotation Zrotation
								JOINT RightShoulder_split
								{
									OFFSET -7.570500 7.247704 -3.868750
									CHANNELS 3 Xrotation Yrotation Zrotation
									JOINT RightArm
									{
										OFFSET -9.308998 -2.777710 0.208500
										CHANNELS 3 Xrotation Yrotation Zrotation
										JOINT RightForeArm
										{
											OFFSET -29.972300 0.000000 0.000000
											CHANNELS 3 Xrotation Yrotation Zrotation
											JOINT RightHand
											{
												OFFSET -26.026505 0.000000 0.000000
												CHANNELS 3 Xrotation Yrotation Zrotation
												End Site
												{
													OFFSET 0 0 0
												}
											}
										}
									}
								}
							}
						}
					}
				}
			}
		}
	}
}
MOTION
Frames: 11
Frame Time: 0.03333333
1.463478 90.602356 -9.178574 0.000000 0.000000 0.000000 3.271113 3.314463 0.437527 -19.826186 16.514755 13.775198 23.323552 -0.325466 2.191581 -6.323068 11.395455 -12.670424 4.162113 -4.992789 2.791356 0.000000 0.000000 0.000000 3.882105 3.437453 0.532948 -11.372197 -6.462824 -10.447028 21.608275 0.063948 1.207237 -12.972801 -7.510891 18.663856 8.557890 4.201621 -8.328420 0.000000 0.000000 0.000000 1.782378 8.769942 0.186034 1.839128 -2.475116 -1.081592 3.641918 2.424513 2.227649 0.160357 -0.565612 0.087112 0.000000 0.000000 0.000000 2.539830 4.212414 2.679117 -10.677345 6.222442 5.468370 -0.678234 -12.666775 8.986498 0.000000 0.000000 0.000000 0.755297 2.759635 2.007708 -1.409097 -3.503901 0.355243 0.546358 -0.731101 -1.470476 0.817008 28.098524 -76.532693 5.392206 -36.031717 0.004095 0.000000 0.000000 0.000000 2.095425 2.775365 2.546210 -1.147459 -13.449842 -1.341187 -2.899804 0.874806 -2.627738 -5.581368 -1.245416 75.089522 2.200851 15.106297 -3.962450 0.000000 0.000000 0.000000 
1.857317 90.564888 -8.829971 0.000000 0.000000 0.000000 3.314791 2.922066 0.436426 -20.085513 16.746463 13.827919 23.530318 -0.491479 2.140762 -6.413437 11.224569 -12.709487 3.969980 -5.003985 3.083347 0.000000 0.000000 0.000000 3.892266 3.494776 0.510530 -11.321056 -6.422941 -10.668535 21.790849 -0.039468 1.257970 -13.160864 -7.706281 18.095746 9.387215 4.156548 -8.283676 0.000000 0.000000 0.000000 1.783544 8.444755 -0.030779 1.865182 -2.570694 -0.925162 3.712832 2.344592 2.215165 0.154118 -0.637978 0.091774 0.000000 0.000000 0.000000 2.622698 4.137899 2.703687 -10.590010 6.393708 5.370751 -0.982211 -12.494649 9.157668 0.000000 0.000000 0.000000 0.721032 2.675878 2.000847 -1.344506 -3.272475 0.032453 0.603563 -1.003326 -1.084723 0.866234 27.826163 -76.458886 5.424695 -35.870658 -0.113037 0.000000 0.000000 0.000000 2.117140 2.684815 2.571564 -0.993066 -13.614561 -1.318213 -2.626854 1.936582 -2.313610 -4.298813 -0.777046 75.200697 2.242152 14.770971 -3.944237 0.000000 0.000000 0.000000 
2.425934 90.496613 -8.533611 0.000000 0.000000 0.000000 3.446778 2.583995 0.386276 -20.624198 16.804828 13.829016 24.171076 -0.800646 2.216213 -6.579766 10.799025 -12.861823 3.850637 -4.959757 3.210872 0.000000 0.000000 0.000000 3.913878 3.649358 0.443931 -11.444654 -6.469545 -11.008810 21.744464 -0.073488 1.238638 -12.945808 -8.132109 17.858703 9.526470 4.186197 -8.232996 0.000000 0.000000 0.000000 1.930420 8.076833 -0.294369 1.969246 -2.756973 -0.706915 3.785600 2.158251 2.197832 0.159077 -0.729009 0.077797 0.000000 0.000000 0.000000 2.760624 3.949910 2.720149 -10.790128 6.488681 5.352923 -1.655277 -11.568214 9.220673 0.000000 0.000000 0.000000 0.725393 2.483073 1.994541 -1.267414 -2.713733 -0.251187 0.416784 -1.203108 -0.764744 1.589005 27.279028 -76.224672 4.975941 -36.340848 -0.473967 0.000000 0.000000 0.000000 2.159099 2.473341 2.587930 -0.792515 -14.006898 -1.378666 -2.620473 3.280743 -2.344217 -2.469539 0.373952 75.523560 2.347170 15.024234 -3.884323 0.000000 0.000000 0.000000 
3.140552 90.375778 -8.389793 0.000000 0.000000 0.000000 3.651217 2.295536 0.302672 -21.316378 16.767121 13.760971 25.041178 -1.110880 2.371250 -6.865619 10.297826 -12.946461 3.754044 -4.856843 3.175863 0.000000 0.000000 0.000000 3.975582 3.795847 0.342468 -11.766749 -6.497946 -11.437669 21.640292 0.024005 1.253513 -11.999243 -8.538058 18.168691 8.730855 4.274725 -8.160470 0.000000 0.000000 0.000000 2.203911 7.702846 -0.559058 2.136028 -2.970659 -0.458274 3.859781 1.897488 2.165120 0.159684 -0.759301 0.064126 0.000000 0.000000 0.000000 2.941006 3.678493 2.700605 -11.232692 6.448902 5.435465 -2.528633 -9.931700 9.239024 0.000000 0.000000 0.000000 0.771336 2.216992 1.952962 -1.184358 -1.935336 -0.490019 0.110177 -1.376547 -0.592954 2.952298 26.460971 -75.868198 4.110324 -37.500174 -1.053582 0.000000 0.000000 0.000000 2.229016 2.190921 2.568598 -0.553201 -14.630953 -1.513332 -2.666472 4.267722 -2.650447 -0.633269 1.837937 75.794520 2.430055 15.779060 -3.735504 0.000000 0.000000 0.000000 
3.970907 90.191635 -8.380016 0.000000 0.000000 0.000000 3.882215 1.992247 0.188814 -22.045615 16.667181 13.600504 26.024433 -1.310771 2.548585 -7.221902 9.948708 -12.919480 3.676534 -4.692172 2.976180 0.000000 0.000000 0.000000 4.162883 3.951582 0.193729 -12.145624 -6.477425 -11.865557 21.426572 0.195803 1.321528 -10.690966 -8.825859 18.638017 7.934007 4.354340 -8.051037 0.000000 0.000000 0.000000 2.508578 7.278868 -0.774155 2.361454 -3.141170 -0.206232 3.941828 1.592008 2.093970 0.160914 -0.689889 0.064076 0.000000 0.000000 0.000000 3.152879 3.367172 2.619262 -11.826456 6.236261 5.658466 -3.366537 -7.715832 9.323204 0.000000 0.000000 0.000000 0.856197 1.917812 1.852145 -1.100411 -1.056286 -0.687659 -0.398151 -1.494552 -0.619641 4.865033 25.476116 -75.418245 2.944831 -39.228966 -1.815146 0.000000 0.000000 0.000000 2.337236 1.892584 2.483130 -0.277217 -15.429402 -1.678049 -2.698685 4.741241 -2.966012 0.776166 3.366915 75.820161 2.402311 16.886261 -3.453180 0.000000 0.000000 0.000000 
4.855388 89.933510 -8.496674 0.000000 0.000000 0.000000 4.094853 1.704854 0.047252 -22.739749 16.613547 13.371884 27.009438 -1.289297 2.686061 -7.727413 9.916775 -12.661193 3.669567 -4.476140 2.603339 0.000000 0.000000 0.000000 4.403712 4.094127 0.007220 -12.533477 -6.370855 -12.275226 20.978173 0.405455 1.399898 -9.773542 -8.917327 18.634960 7.935035 4.384503 -7.883705 0.000000 0.000000 0.000000 2.818657 6.679625 -0.932222 2.630048 -3.211588 0.040554 4.031216 1.273833 1.962118 0.146333 -0.556087 0.080239 0.000000 0.000000 0.000000 3.383395 3.044932 2.451231 -12.477944 5.883604 6.027915 -4.003850 -5.095537 9.553904 0.000000 0.000000 0.000000 0.981008 1.609610 1.681615 -1.029595 -0.137789 -0.854362 -0.935580 -1.494109 -0.816727 7.084454 24.480899 -74.916711 1.597335 -41.371525 -2.720716 0.000000 0.000000 0.000000 2.487310 1.602720 2.312990 0.037596 -16.263322 -1.829506 -2.635470 4.770732 -3.147635 1.421256 4.779178 75.484846 2.198896 18.126916 -3.000783 0.000000 0.000000 0.000000 
5.801246 89.626152 -8.636543 0.000000 0.000000 0.000000 4.262853 1.436812 -0.093600 -23.337037 16.620184 13.069276 27.886330 -0.996463 2.762631 -8.342786 10.214368 -12.197122 3.656914 -4.235385 2.116511 0.000000 0.000000 0.000000 4.659847 4.118590 -0.160695 -13.068909 -6.189090 -12.751741 20.508048 0.802387 1.463869 -9.353903 -8.595927 17.926590 8.751962 4.380925 -7.699595 0.000000 0.000000 0.000000 3.096199 5.927593 -1.010390 2.946153 -3.149392 0.278681 4.126174 0.934885 1.763941 0.131227 -0.404417 0.103838 0.000000 0.000000 0.000000 3.612698 2.729739 2.187444 -13.089074 5.434794 6.512307 -4.360170 -2.239454 9.975075 0.000000 0.000000 0.000000 1.157801 1.294316 1.445275 -0.986600 0.773834 -1.036244 -1.345976 -1.465372 -1.039048 9.460674 23.613094 -74.389694 0.174432 -43.744452 -3.728960 0.000000 0.000000 0.000000 2.666548 1.324739 2.077251 0.378304 -17.015876 -1.974190 -2.394040 4.538592 -3.033312 1.309482 6.227822 74.888400 1.800917 19.519692 -2.382144 0.000000 0.000000 0.000000 
6.787525 89.318672 -8.770824 0.000000 0.000000 0.000000 4.404291 0.997568 -0.202680 -23.796852 16.558134 12.692188 28.688895 -0.574119 2.807107 -8.827149 10.717459 -11.836666 3.370617 -3.999657 1.642060 0.000000 0.000000 0.000000 4.907052 3.827130 -0.247352 -14.017905 -5.986942 -13.295358 20.340935 1.494124 1.567704 -8.749030 -7.677656 17.039958 9.546632 4.370843 -7.482973 0.000000 0.000000 0.000000 3.320667 5.029286 -0.995099 3.291405 -2.951955 0.488763 4.220177 0.560435 1.496238 0.127717 -0.287503 0.084187 0.000000 0.000000 0.000000 3.819932 2.407730 1.842307 -13.578798 4.976992 7.022590 -4.439662 0.818521 10.544541 0.000000 0.000000 0.000000 1.388868 0.965588 1.158654 -0.973334 1.675332 -1.276710 -1.689307 -1.439402 -1.172122 11.857995 23.049389 -73.883987 -1.219871 -45.937516 -4.764111 0.000000 0.000000 0.000000 2.863779 1.031979 1.794778 0.738577 -17.578846 -2.107191 -2.176814 4.272200 -2.569916 0.637095 7.908880 74.164687 1.223864 21.324067 -1.625956 0.000000 0.000000 0.000000 
7.790402 89.004570 -8.896481 0.000000 0.000000 0.000000 4.514630 0.368158 -0.255285 -24.075155 16.379970 12.188193 29.465928 -0.094704 2.863156 -9.198293 11.261314 -11.624052 2.719544 -3.780850 1.258798 0.000000 0.000000 0.000000 5.045864 3.154097 -0.248458 -15.542410 -5.778072 -13.661447 20.706005 2.607835 1.695101 -7.731771 -6.169646 16.510457 9.090192 4.334843 -7.147492 0.000000 0.000000 0.000000 3.504370 4.009060 -0.904551 3.645620 -2.655589 0.674174 4.290350 0.143501 1.177650 0.134684 -0.216250 0.066940 0.000000 0.000000 0.000000 3.987009 2.063731 1.448520 -13.857774 4.617495 7.449293 -4.281285 4.019955 11.190900 0.000000 0.000000 0.000000 1.669471 0.598195 0.843886 -0.973754 2.553079 -1.570893 -1.989621 -1.378957 -1.190974 14.076684 22.872753 -73.412519 -2.479857 -47.604940 -5.703505 0.000000 0.000000 0.000000 3.072852 0.704053 1.485447 1.123838 -17.885964 -2.236120 -1.934040 4.076833 -1.991317 -0.312635 9.803762 73.512397 0.428496 23.840031 -0.711948 0.000000 0.000000 0.000000 
8.809901 88.674355 -8.994370 0.000000 0.000000 0.000000 4.549958 -0.421411 -0.227320 -24.123627 16.063085 11.495603 30.214489 0.432239 2.986053 -9.573913 11.726380 -11.510075 1.911581 -3.582330 0.950152 0.000000 0.000000 0.000000 5.137805 2.101941 -0.163556 -17.353065 -5.541557 -13.529196 21.794869 3.996394 1.730541 -6.998729 -4.384262 15.995687 7.414084 4.178882 -6.563146 0.000000 0.000000 0.000000 3.662646 2.918255 -0.752215 4.005441 -2.336086 0.849378 4.331191 -0.330404 0.831059 0.148949 -0.199533 0.065749 0.000000 0.000000 0.000000 4.110477 1.666230 1.040278 -13.891526 4.431894 7.689682 -3.995328 7.328225 11.790139 0.000000 0.000000 0.000000 1.963216 0.156482 0.514805 -0.966377 3.357769 -1.912800 -2.240626 -1.212558 -1.116193 15.984646 23.067267 -72.934850 -3.424023 -48.530635 -6.387718 0.000000 0.000000 0.000000 3.263644 0.314710 1.179515 1.529050 -17.899324 -2.384195 -1.604905 4.096339 -1.434891 -1.304714 11.625150 73.019121 -0.639751 27.153248 0.417716 0.000000 0.000000 0.000000 
9.866066 88.334778 -9.069233 0.000000 0.000000 0.000000 4.516859 -1.328044 -0.136369 -23.918990 15.573810 10.604016 30.934162 0.962616 3.204183 -10.138220 12.035641 -11.455805 1.314737 -3.404260 0.634947 0.000000 0.000000 0.000000 5.185025 0.764415 -0.021090 -19.010501 -5.412401 -12.777847 23.590790 5.139749 1.649680 -7.384470 -2.915247 14.259267 6.364252 3.779560 -5.621410 0.000000 0.000000 0.000000 3.865796 1.733559 -0.573342 4.352186 -2.085173 1.017052 4.306127 -0.869672 0.475406 0.156130 -0.189742 0.043626 0.000000 0.000000 0.000000 4.164842 1.179376 0.638184 -13.680877 4.466208 7.674045 -3.671400 10.734766 12.251286 0.000000 0.000000 0.000000 2.220366 -0.390774 0.187212 -0.948600 4.011072 -2.246836 -2.385682 -0.854743 -1.049331 17.383031 23.539224 -72.415011 -3.984732 -48.697890 -6.757849 0.000000 0.000000 0.000000 3.410741 -0.164179 0.885635 1.935352 -17.604242 -2.562522 -1.361661 4.034289 -0.978445 -2.209963 13.121184 72.626242 -2.010710 30.936792 1.811242 0.000000 0.000000 0.000000 
